# xmcd
#
# Track frame offsets:
#	150
#	28907
#	59258
#	76610
#	91482
#	108670
#	128579
#	161089
#	179581
#	194996
#	223831
#	234567
#	255461
#	287164
#
# Disc length: 4173
#
# Revision: 1
# Processed by: cddbd v1.5.1PL0 Copyright (c) Steve Scherf et al.
# Submitted via: ExactAudioCopy v0.95a3
# Normalized: r0:TRMNUM
#
DISCID=d0104b0e
DTITLE=Jani Kovacic - Povabil na Bluz
DYEAR=1900
DGENRE=Blues
TTITLE0=Povabilo na bluz
TTITLE1=Romeo krvavi
TTITLE2=Tam dol v luknji
TTITLE3=Ploskaj!
TTITLE4=Komi cakam, de pridem s sihta
TTITLE5=Mrzel mrzel grob
TTITLE6=Devetindvajset dolarjev
TTITLE7=Prah v zemlji
TTITLE8=Fajhtni cucki
TTITLE9=Rdeci solni
TTITLE10=Tango do skrajnosti
TTITLE11=Lokalni vlak
TTITLE12=Traubertovega Toma bluz
TTITLE13=Cas
EXTD=
EXTT0=
EXTT1=
EXTT2=
EXTT3=
EXTT4=
EXTT5=
EXTT6=
EXTT7=
EXTT8=
EXTT9=
EXTT10=
EXTT11=
EXTT12=
EXTT13=
PLAYORDER=
